
<!-- Generator: visioncortex VTracer 0.6.4 -->
<svg version="1.1" xmlns="http://www.w3.org/2000/svg" viewBox="0 0 81 81" preserveAspectRatio="xMidYMid meet">
<path d="M0 0 C26.73 0 53.46 0 81 0 C81 26.73 81 53.46 81 81 C54.27 81 27.54 81 0 81 C0 54.27 0 27.54 0 0 Z " fill="#DCDDDC" transform="translate(0,0)"/>
<path d="M0 0 C3.539 1.651 4.811 2.716 7 6 C6.912 11.355 6.333 14.556 2.543 18.613 C-0.135 21.02 -3.005 23.004 -6 25 C-2.7 25.33 0.6 25.66 4 26 C3.67 27.98 3.34 29.96 3 32 C-4.26 32 -11.52 32 -19 32 C-19 27 -19 27 -16.297 24.246 C-15.127 23.295 -13.944 22.359 -12.75 21.438 C-7.036 17.073 -7.036 17.073 -2 12 C-2 10.68 -2 9.36 -2 8 C-5.625 7.799 -7.865 8.142 -11 10 C-12.32 8.68 -13.64 7.36 -15 6 C-9.662 1.474 -7.33 -0.497 0 0 Z " fill="#080808" transform="translate(29,24)"/>
<path d="M0 0 C1.134 0.021 2.269 0.041 3.438 0.062 C3.108 2.043 2.778 4.023 2.438 6.062 C4.087 6.062 5.737 6.062 7.438 6.062 C7.108 8.373 6.778 10.683 6.438 13.062 C4.457 13.062 2.477 13.062 0.438 13.062 C0.221 14.671 0.221 14.671 0 16.312 C-0.4 18.979 -0.838 21.476 -1.562 24.062 C0.087 23.733 1.737 23.403 3.438 23.062 C3.767 25.373 4.097 27.683 4.438 30.062 C-3.413 31.455 -3.413 31.455 -7.125 30.188 C-9.483 26.701 -9.047 23.135 -8.562 19.062 C-7.562 15.5 -7.562 15.5 -6.562 13.062 C-7.883 12.733 -9.203 12.403 -10.562 12.062 C-9.903 10.082 -9.242 8.102 -8.562 6.062 C-7.242 6.062 -5.922 6.062 -4.562 6.062 C-4.583 5.258 -4.604 4.454 -4.625 3.625 C-4.528 -0.372 -4.137 0.073 0 0 Z " fill="#D52C2A" transform="translate(47.5625,25.9375)"/>
<path d="M0 0 C1.653 0.017 1.653 0.017 3.34 0.035 C4.997 0.049 4.997 0.049 6.688 0.062 C7.542 0.074 8.397 0.086 9.277 0.098 C8.636 6.674 7.601 13.064 6.277 19.535 C6.099 20.432 5.922 21.328 5.738 22.252 C4.409 28.835 4.409 28.835 3.277 31.098 C0.967 31.098 -1.343 31.098 -3.723 31.098 C-3.097 25.298 -2.049 19.76 -0.66 14.098 C-0.474 13.323 -0.288 12.548 -0.096 11.75 C0.358 9.865 0.817 7.981 1.277 6.098 C-0.373 6.098 -2.023 6.098 -3.723 6.098 C-3.765 4.432 -3.763 2.764 -3.723 1.098 C-2.723 0.098 -2.723 0.098 0 0 Z " fill="#070707" transform="translate(61.72265625,24.90234375)"/>
</svg>